<svg width="125" height="70" viewBox="0 0 125 70" fill="none" xmlns="http://www.w3.org/2000/svg">
<mask id="mask0_728_3288" style="mask-type:luminance" maskUnits="userSpaceOnUse" x="74" y="0" width="51" height="70">
<path d="M86.4618 41.0488H95.5063V32.0108H103.417V41.0488H112.461V48.9601H103.417V57.9982H95.5063V48.9601H86.4618V41.0488ZM109.451 0V24.0872C107.945 21.9617 102.765 20.4026 99.4678 20.1224C99.1204 20.092 98.7852 20.0737 98.4804 20.0737C84.28 20.0737 74.876 30.744 74.876 45.0319C74.876 59.3198 85.2612 69.8926 99.4617 69.8926C113.662 69.8926 123.292 60.075 124.005 46.5666C124.029 46.0611 124.047 45.5496 124.047 45.038C124.047 44.8431 124.047 44.6482 124.047 44.4533C124.047 44.1244 124.023 43.8016 124.011 43.4788L124.053 43.3936V6.35221C124.053 2.84418 121.207 0 117.697 0H109.457H109.451Z" fill="white"/>
</mask>
<g mask="url(#mask0_728_3288)">
<path d="M77.899 30.7805H70.2197V31.0728V33.3994V35.738V38.0767V38.4543H77.899V37.8331V35.4944V33.1618V30.8231V30.7805Z" fill="#ED7236"/>
<path d="M77.5637 69.2348H76.8019H76.0401H75.2844H74.5225H73.7607H73.005H72.2431H71.4813H70.7256H70.2197V70.7757V73.1083V75.4409V77H77.899V75.2034V72.8768V70.5321V69.2348H77.5637Z" fill="#EE7F3C"/>
<path d="M77.6186 15.3415H76.8568H76.101H75.3392H74.0045H72.6637H71.3229H70.2197V18.7399V22.8448V23.1128H71.4752H72.8099H73.5657H74.3336H75.0893H75.8451H76.613H77.3687H77.899V21.4867V19.148V16.8154V15.3415H77.6186Z" fill="#EC7034"/>
<path d="M77.838 7.66772H76.4972H75.1625H73.8217H72.4869H71.1522H70.2197V10.5241V14.629V15.3415H77.899V14.4828V12.1441V9.81152V7.66772H77.838Z" fill="#EC6932"/>
<path d="M77.2346 53.8933H76.4728H75.7171H74.9552H74.1934H73.4316H72.6759H71.914H71.1522H70.3965H70.2197V54.4232V56.7558V59.1005V61.427V61.561H70.9389H71.7007H72.4565H73.2183H73.9801H74.7419H75.4977H76.2595H77.0213H77.7771H77.899V61.1895V58.8508V56.5182V54.1795V53.8933H77.2346Z" fill="#EC7B39"/>
<path d="M77.899 0H70.2197V2.30214V6.40702V7.66772V7.67381H77.899V7.66772V7.47283V3.36186V0Z" fill="#EB6631"/>
<path d="M77.6978 38.4543H76.936H76.1803H75.4184H74.6566H73.9009H73.1391H72.3772H71.6215H70.8597H70.2197V40.4093V42.7541V45.0806V46.1281H70.6464H71.4021H72.1639H72.9257H73.6815H74.4433H75.2051H75.9609H76.7227H77.4845H77.899V44.8431V42.5044V40.1718V38.4543H77.6978Z" fill="#EC7034"/>
<path d="M77.899 61.561H77.7771H77.0213H76.2595H75.4977H74.7419H73.9801H73.2244H72.4565H71.7007H70.9389H70.2197V63.7657V66.1044V68.437V69.2348H77.899V68.1995V65.8608V63.5282V61.561Z" fill="#F18F42"/>
<path d="M77.899 46.1281H70.2197V47.4132V49.7519V52.0906V53.8933H77.899V51.8469V49.5144V47.1818V46.1281Z" fill="#EC7034"/>
<path d="M77.899 23.1128H70.2197V26.9558V30.7805H70.3111H70.3172H71.073H71.8348H72.5966H73.3585H74.1142H74.876H75.6379H76.3936H77.1554H77.899V28.4905V26.158V23.8254V23.1128Z" fill="#EC7034"/>
<path d="M123.913 69.2348H123.157H122.395H121.634H120.878H120.116H119.36H118.592H117.837H117.075H116.478V77H124.151V75.52V73.1814V70.8488V69.2348H123.913Z" fill="#F7B24A"/>
<path d="M123.59 53.8933H122.828H122.066H121.311H120.549H119.793H119.031H118.269H117.508H116.746H116.478V61.561H116.532H117.294H118.056H118.812H119.574H120.335H121.091H121.853H122.609H123.371H124.126H124.151V61.5062V59.1675V56.8349V54.4962V53.8933H123.59Z" fill="#F4A245"/>
<path d="M124.151 61.561H124.126H123.371H122.615H121.853H121.091H120.335H119.574H118.812H118.056H117.294H116.532H116.478V69.2348H124.151V68.5101V66.1714V63.8388V61.561Z" fill="#F6B04B"/>
<path d="M123.425 7.66772H122.67H121.908H121.152H120.384H119.628H118.873H118.105H117.349H116.587H116.478V7.67381V15.3415H124.151V14.7934V12.4547V10.1221V7.78344V7.66772H123.425Z" fill="#F0883D"/>
<path d="M124.151 0H116.478V7.67381H124.151V7.66772V5.45084V3.11216V0.779562V0Z" fill="#F0A140"/>
<path d="M124.151 23.1128H116.478V30.7805H116.666H117.428H118.19H118.946H119.708H120.47H121.231H121.993H122.749H123.505H124.151V28.8072V26.4686V24.136V23.1128Z" fill="#F4A245"/>
<path d="M124.151 30.7805H116.478V38.4543H124.151V38.1498V35.8111V33.4785V31.1398V30.7805Z" fill="#F5A547"/>
<path d="M124.047 38.4543H123.285H122.529H121.774H121.012H120.256H119.494H118.726H117.977H117.215H116.478V46.1281H116.996H117.757H118.513H119.275H120.037H120.793H121.554H122.316H123.078H123.84H124.151V45.1537V42.8211V40.4824V38.4543H124.047Z" fill="#F5A948"/>
<path d="M124.151 46.1281H116.478V53.8933H124.151V52.1636V49.825V47.4924V46.1281Z" fill="#F6AA48"/>
<path d="M123.974 15.3415H123.206H122.45H121.695H120.939H120.171H119.409H118.653H117.891H117.13H116.478V23.1128H116.886H117.648H118.403H119.165H119.921H120.683H121.445H122.206H122.968H123.724H124.151V21.7973V19.4647V17.126V15.3415H123.974Z" fill="#F4A045"/>
<path d="M108.702 23.1128H101.029H101.022V25.147V27.4796V29.8121V30.7805H101.473H102.235H102.991H103.753H104.515H105.27H106.032H106.794H107.55H108.312H108.702V29.5746V27.242V24.9033V23.1128Z" fill="#F29242"/>
<path d="M108.702 46.1281H101.029H101.022V46.1647V48.5034V50.836V53.1746V53.8933H101.029H108.702V52.9371V50.5984V48.2658V46.1281Z" fill="#F0A140"/>
<path d="M108.391 53.8933H107.635H106.873H106.111H105.356H104.594H103.832H103.07H102.315H101.553H101.022V55.5133V57.8459V60.1846V61.561H101.029H101.333H102.101H102.857H103.613H104.375H105.136H105.892H106.66H107.416H108.171H108.702V59.941V57.6084V55.2697V53.8933H108.391Z" fill="#F0883D"/>
<path d="M108.702 30.7805H101.029H101.022V32.1508V34.4895V36.8221V38.4543H101.029H108.702V36.5846V34.252V31.9133V30.7805Z" fill="#F39443"/>
<path d="M108.702 61.561H108.171H107.416H106.648H105.892H105.136H104.375H103.613H102.857H102.101H101.333H101.029H101.022V62.5172V64.8559V67.1885V69.2348H101.029H108.702V66.9449V64.6123V62.2797V61.561Z" fill="#F39F44"/>
<path d="M107.958 69.2348H107.196H106.441H105.673H104.923H104.161H103.399H102.638H101.882H101.126H101.022V69.5272V71.8598V74.1984V76.531V77H101.029H108.702V76.2935V73.9548V71.6222V69.2836V69.2348H107.958Z" fill="#F4A245"/>
<path d="M108.092 38.4543H107.336H106.581H105.819H105.057H104.295H103.54H102.778H102.016H101.26H101.022V39.1608V41.4934V43.8321V46.1281H101.041H101.796H102.558H103.32H104.076H104.838H105.6H106.361H107.117H107.879H108.641H108.702V45.9272V43.5946V41.2559V38.9172V38.4543H108.092Z" fill="#F39842"/>
<path d="M108.226 7.66772H107.471H106.709H105.953H105.191H104.429H103.674H102.912H102.15H101.394H101.022V8.79443V11.1331V13.4657V15.3415H101.029H108.702V13.2282V10.8895V8.55691V7.66772H108.226Z" fill="#F08A3F"/>
<path d="M108.019 15.3415H107.257H106.495H105.74H104.978H104.216H103.454H102.698H101.937H101.175H101.022V15.8044V18.137V20.4757V22.8083V23.1128H101.693H102.449H103.21H103.966H104.728H105.484H106.246H107.007H107.769H108.525H108.702V22.5708V20.2321V17.8995V15.5669V15.3415H108.019Z" fill="#EE7F3C"/>
<path d="M108.702 0H101.029H101.022V1.79056V4.12315V6.46184V7.66772H101.029V7.67381H108.702V7.66772V6.21822V3.88563V1.54694V0Z" fill="#F0883D"/>
<path d="M116.313 69.2348H115.558H114.796H114.04H113.278H112.516H111.761H110.999H110.237H109.475H108.719H108.701V77H116.478V75.7576V73.425V71.0863V69.2348H116.313Z" fill="#F6AA48"/>
<path d="M116.478 46.1281H108.701V53.8933H116.478V52.4012V50.0686V47.7299V46.1281Z" fill="#F4A245"/>
<path d="M116.374 15.3415H115.612H114.857H114.095H113.339H112.571H111.816H111.054H110.298H109.536H108.774H108.701V23.1128H109.292H110.048H110.804H111.572H112.327H113.083H113.845H114.607H115.363H116.124H116.478V22.0409V19.7022V17.3635V15.3415H116.374Z" fill="#F39842"/>
<path d="M116.478 61.561H115.771H115.015H114.253H113.492H112.736H111.968H111.212H110.456H109.695H108.933H108.701V69.2348H116.478V68.7476V66.415V64.0763V61.7437V61.561Z" fill="#F5A948"/>
<path d="M115.826 7.66772H115.064H114.308H113.552H112.791H112.035H111.273H110.505H109.749H108.994H108.701V7.67381V15.3415H116.478V15.0309V12.6922V10.3596V8.02096V7.66772H115.826Z" fill="#F39542"/>
<path d="M116.478 0H108.701V7.67381H116.478V7.66772V5.68837V3.34968V1.01099V0Z" fill="#F0883D"/>
<path d="M116.478 23.1128H108.701V30.7805H109.067H109.829H110.59H111.346H112.114H112.87H113.632H114.394H115.149H115.911H116.478V29.0448V26.7061V24.3735V23.1128Z" fill="#F0A140"/>
<path d="M116.478 30.7805H108.701V38.4543H116.478V38.3873V36.0486V33.716V31.3774V30.7805Z" fill="#F49D45"/>
<path d="M115.99 53.8933H115.235H114.467H113.711H112.955H112.193H111.432H110.67H109.914H109.146H108.701V61.561H108.933H109.695H110.456H111.212H111.968H112.736H113.492H114.253H115.015H115.771H116.478V59.405V57.0725V54.7338V53.8933H115.99Z" fill="#F5A546"/>
<path d="M116.454 38.4543H115.692H114.936H114.174H113.412H112.65H111.895H111.139H110.377H109.615H108.854H108.701V46.1281H109.396H110.158H110.92H111.675H112.437H113.193H113.961H114.717H115.478H116.24H116.478V45.3912V43.0586V40.7199V38.4543H116.454Z" fill="#F39842"/>
<path d="M85.2191 15.3415H84.4511H83.6954H82.9397H82.1778H81.416H80.6603H79.8984H79.1366H78.3809H77.8994V23.1128H78.131H78.8928H79.6547H80.4104H81.1722H81.9279H82.6898H83.4455H84.2134H84.9692H85.5786V21.2492V18.9105V16.5779V15.3415H85.2191Z" fill="#EC7537"/>
<path d="M85.4385 7.66772H84.6705H83.9148H83.153H82.3972H81.6354H80.8736H80.1178H79.356H78.5942H77.8994V7.67381V15.3415H85.5786V14.2392V11.9066V9.57399V7.66772H85.4385Z" fill="#ED7236"/>
<path d="M85.5786 0H77.8994V7.67381H85.5786V7.66772V7.23531V4.90271V2.56403V0.231432V0Z" fill="#ED7135"/>
<path d="M85.5786 23.1128H77.8994V30.7805H77.9116H78.6734H79.4353H80.1971H80.9589H81.7147H82.4765H83.2322H83.994H84.7559H85.5116H85.5786V30.5856V28.253V25.9143V23.5817V23.1128Z" fill="#ED7939"/>
<path d="M85.2983 38.4543H84.5364H83.7807H83.0189H82.2571H81.5013H80.7395H79.9777H79.2159H78.4601H77.8994V46.1281H78.2468H79.0025H79.7644H80.5201H81.2819H82.0377H82.8056H83.5613H84.317H85.085H85.5786V44.6056V42.273V39.9343V38.4543H85.2983Z" fill="#ED7E3B"/>
<path d="M85.5786 30.7805H77.8994V38.4543H85.5786V37.5956V35.263V32.9243V30.7805Z" fill="#EC7B39"/>
<path d="M85.5786 46.1281H77.8994V53.8933H85.5786V51.6155V49.2768V46.9381V46.1281Z" fill="#ED7236"/>
<path d="M84.8351 53.8933H84.0794H83.3175H82.5557H81.7939H81.032H80.2763H79.5145H78.7588H77.9969H77.8994V61.561H78.5393H79.3012H80.0569H80.8126H81.5806H82.3424H83.0981H83.86H84.6218H85.3775H85.5786V60.952V58.6194V56.2807V53.9481V53.8933H84.8351Z" fill="#ED7939"/>
<path d="M85.1581 69.2348H84.4024H83.6466H82.8787H82.123H81.3612H80.5993H79.8436H79.0818H78.326H77.8994V77H85.5786V74.9658V72.6271V70.2945V69.2348H85.1581Z" fill="#EF873D"/>
<path d="M85.5786 61.561H85.3775H84.6218H83.86H83.1042H82.3424H81.5806H80.8187H80.0569H79.3012H78.5393H77.8994V69.2348H85.5786V67.968V65.6233V63.2907V61.561Z" fill="#EC7034"/>
<path d="M101.028 23.1128H93.3486V30.7805H93.8728H94.6346H95.3903H96.1521H96.914H97.6697H98.4315H99.1934H99.9491H100.711H101.022H101.028V23.1128Z" fill="#F0883D"/>
<path d="M101.022 69.2348H100.357H99.5956H98.8399H98.0841H97.3223H96.5605H95.8048H95.0429H94.2811H93.5254H93.3486V77H101.028V69.2348H101.022Z" fill="#F0A140"/>
<path d="M101.022 7.67381V7.66772H100.626H99.8699H99.1141H98.3523H97.5905H96.8348H96.0729H95.3111H94.5554H93.7935H93.3486V7.67381V15.3415H101.028V7.67381H101.022Z" fill="#EF833D"/>
<path d="M101.028 15.3415H101.022H100.418H99.6505H98.8947H98.139H97.3772H96.6153H95.8535H95.0978H94.336H93.5802H93.3486V23.1128H94.0922H94.8479H95.6097H96.3716H97.1334H97.8891H98.6449H99.4128H100.169H100.93H101.022H101.028V15.3415Z" fill="#F0853D"/>
<path d="M101.022 0H93.3486V7.67381H101.022V0Z" fill="#EE7F3C"/>
<path d="M101.022 46.1281H93.3486V53.8933H101.022V46.1281Z" fill="#F29242"/>
<path d="M101.022 61.561H100.571H99.815H99.0593H98.2975H97.5356H96.7738H96.0181H95.2562H94.5005H93.7387H93.3486V69.2348H101.028V61.561H101.022Z" fill="#F39842"/>
<path d="M101.022 53.8933H100.79H100.034H99.2726H98.5108H97.749H96.9932H96.2314H95.4756H94.7138H93.952H93.3486V61.561H93.7326H94.5005H95.2562H96.0181H96.7738H97.5356H98.2975H99.0593H99.815H100.571H101.022H101.028V53.8933H101.022Z" fill="#F39443"/>
<path d="M101.028 38.4543H101.022H100.498H99.7358H98.974H98.2121H97.4564H96.6946H95.9388H95.1709H94.4152H93.6594H93.3486V46.1281H93.44H94.2019H94.9637H95.7255H96.4813H97.237H97.9988H98.7606H99.5164H100.278H101.022H101.028V38.4543Z" fill="#F18F42"/>
<path d="M101.022 30.7805H93.3486V38.4543H101.022V30.7805Z" fill="#EE7F3C"/>
<path d="M92.7576 69.2348H92.0018H91.2461H90.4782H89.7225H88.9606H88.1988H87.437H86.6812H85.9194H85.5781V77H93.3488V76.7686V74.436V72.0973V69.7647V69.2348H92.7576Z" fill="#F29242"/>
<path d="M93.1964 53.8933H92.4346H91.6666H90.9109H90.1552H89.3933H88.6315H87.8758H87.114H86.3521H85.5964H85.5781V61.561H86.1327H86.9006H87.6564H88.4121H89.18H89.9419H90.6915H91.4594H92.2213H92.977H93.3488V60.4221V58.0834V55.7509V53.8933H93.1964Z" fill="#ED7E3B"/>
<path d="M93.3488 61.561H92.977H92.2213H91.4533H90.6976H89.9419H89.18H88.4121H87.6564H86.9006H86.1327H85.5781V69.2348H93.3488V67.426V65.0873V62.7547V61.561Z" fill="#ED7E3B"/>
<path d="M93.3488 46.1281H85.5781V53.8933H93.3488V53.4122V51.0735V48.7409V46.4083V46.1281Z" fill="#ED7939"/>
<path d="M93.3488 0H85.5781V7.67381H93.3488V7.66772V6.70545V4.36676V2.02808V0Z" fill="#ED7939"/>
<path d="M93.0318 7.66772H92.27H91.5143H90.7525H89.9906H89.2349H88.4731H87.7173H86.9555H86.1937H85.5781V7.67381V15.3415H93.3488V13.7093V11.3706V9.03804V7.66772H93.0318Z" fill="#EC7B39"/>
<path d="M92.8978 38.4543H92.1359H91.3802H90.6184H89.8565H89.1008H88.339H87.5772H86.8153H86.0596H85.5781V46.1281H85.8402H86.602H87.3577H88.1257H88.8814H89.6371H90.4051H91.1608H91.9165H92.6784H93.3488V44.0696V41.7309V39.3983V38.4543H92.8978Z" fill="#F18F42"/>
<path d="M93.3488 30.7805H85.5781V38.4543H93.3488V37.0657V34.727V32.3944V30.7805Z" fill="#ED7E3B"/>
<path d="M92.8185 15.3415H92.0567H91.301H90.5391H89.7712H89.0155H88.2598H87.4979H86.7361H85.9804H85.5781V23.1128H85.7244H86.4923H87.248H88.0038H88.7656H89.5274H90.2893H91.0511H91.8129H92.5687H93.3244H93.3488V23.0519V20.7132V18.3806V16.0419V15.3415H92.8185Z" fill="#ED7E3B"/>
<path d="M93.3488 23.1128H85.5781V30.7805H86.2729H87.0347H87.7905H88.5584H89.3141H90.0699H90.8378H91.5935H92.3492H93.1111H93.3488V30.0558V27.7232V25.3845V23.1128Z" fill="#F18F42"/>
</g>
<mask id="mask1_728_3288" style="mask-type:luminance" maskUnits="userSpaceOnUse" x="0" y="20" width="39" height="50">
<path d="M15.3377 29.1848V20.7558H0.844727V62.7547C0.844727 66.2628 3.69092 69.1069 7.20142 69.1069H15.3438V47.7482C15.3438 40.9879 19.7563 35.7441 27.6245 36.3592C29.3736 30.1958 33.0121 25.1835 38.0158 21.8521C35.3586 20.7132 32.4941 20.1651 29.7271 20.1651C23.0901 20.1651 16.9711 23.3259 15.3438 29.1848" fill="white"/>
</mask>
<g mask="url(#mask1_728_3288)">
<path d="M39.4171 38.4543H38.4054H37.0646H35.7299H34.3952H33.0543H31.7135H31.6465V38.6675V42.7845V46.1281H31.8964H33.2311H34.5719H35.9066H37.2474H38.5822H39.4171V38.4543Z" fill="#E5542F"/>
<path d="M39.4171 23.1128H31.6465V26.3407V30.4455V30.7805H32.8776H34.2123H35.5531H36.8879H38.2287H39.4171V23.1128Z" fill="#E5502F"/>
<path d="M31.6465 30.7805V34.5626V38.4543H39.4171V30.7805H31.6465Z" fill="#E6522E"/>
<path d="M39.4171 15.3415H39.2343H37.8935H36.5587H35.224H33.8893H32.5485H31.6465V18.1187V22.2236V23.1128H32.6948H34.0356H35.3703H36.7111H38.0458H39.3806H39.4171V15.3415Z" fill="#E1452D"/>
<path d="M31.6465 46.1281V46.8894V51.0004V53.8933H39.4171V46.1281H31.6465Z" fill="#DD5326"/>
<path d="M39.4171 61.561H38.9052H37.5705H36.2296H34.8949H33.5602H32.2194H31.6465V63.3272V67.4443V69.2348H39.4171V61.561Z" fill="#E65B2E"/>
<path d="M39.4171 53.8933H38.7284H37.3937H36.0529H34.7182H33.3774H32.0426H31.6465V55.1053V59.2223V61.561H32.2194H33.5602H34.8949H36.2296H37.5705H38.9052H39.4171V53.8933Z" fill="#E6592D"/>
<path d="M23.968 61.561H22.8649H21.5241H20.1833H18.8486H17.5138H16.2949V69.2348H23.968V66.3724V62.2675V61.561Z" fill="#E44E2E"/>
<path d="M23.194 15.3415H21.8532H20.5124H19.1777H17.8369H16.5021H16.2949V23.1128H16.6545H17.9831H19.33H20.6648H21.9995H23.3342H23.968V21.1639V17.0529V15.3415H23.194Z" fill="#DD3827"/>
<path d="M23.968 23.1128H16.2949V30.7805H16.8312H18.166H19.5068H20.8415H22.1762H23.517H23.968V29.3858V25.2749V23.1128Z" fill="#E1452D"/>
<path d="M23.968 46.1281H16.2949V53.8933H23.968V49.9285V46.1281Z" fill="#E24A2F"/>
<path d="M23.968 30.7805H16.2949V38.4543H23.968V37.6017V33.4968V30.7805Z" fill="#E2472E"/>
<path d="M23.6938 38.4543H22.3591H21.0183H19.6774H18.3427H17.0019H16.2949V46.1281H17.1847H18.5195H19.8603H21.195H22.5358H23.8705H23.968V45.8236V41.7126V38.4543H23.6938Z" fill="#DC3427"/>
<path d="M22.6821 53.8933H21.3413H20.0065H18.6718H17.3371H16.2949V61.561H17.5138H18.8486H20.1833H21.5241H22.8649H23.968V58.1565V54.0456V53.8933H22.6821Z" fill="#E44E2E"/>
<path d="M31.647 23.1128H23.9678V30.7805H24.8515H26.1923H27.5331H28.8618H30.2026H31.5373H31.647V23.1128Z" fill="#E34B2E"/>
<path d="M31.6409 30.7805H23.9678V38.4543H31.6409V30.7805Z" fill="#DD5326"/>
<path d="M31.647 61.561H30.8852H29.5443H28.2096H26.8749H25.5341H24.1994H23.9678V69.2348H31.647V61.561Z" fill="#E5542F"/>
<path d="M31.647 53.8933H30.7023H29.3676H28.0329H26.6982H25.3573H24.0226H23.9678V61.561H24.1994H25.5341H26.8749H28.2096H29.5443H30.8852H31.647V53.8933Z" fill="#DE3B2A"/>
<path d="M31.6409 46.1281H23.9678V53.8933H31.6409V46.1281Z" fill="#E5502F"/>
<path d="M31.647 38.4543H30.3793H29.0446H27.7038H26.3691H25.0343H23.9678V46.1281H25.2111H26.5458H27.8805H29.2213H30.5561H31.647V38.4543Z" fill="#E44E2E"/>
<path d="M31.647 15.3415H31.2143H29.8796H28.5326H27.1979H25.8632H24.5285H23.9678V23.1128H24.6748H26.0095H27.3503H28.6911H30.0197H31.3606H31.647V15.3415Z" fill="#DD5326"/>
<path d="M8.51785 15.3415H8.48129H7.14047H5.80575H4.47102H3.13631H1.79549H0.844727V18.271V22.3759V23.1128H1.94176H3.28257H4.6173H5.95811H7.29284H8.51785V15.3415Z" fill="#DD3828"/>
<path d="M8.51785 23.1128H0.844727V26.4868V30.5978V30.7805H2.1246H3.45932H4.80014H6.13486H7.46349H8.51785V23.1128Z" fill="#DC3427"/>
<path d="M8.51785 61.561H8.15218H6.81746H5.47664H4.14192H2.8011H1.46638H0.844727V63.4734V67.5844V69.2348H8.51785V61.561Z" fill="#DD3827"/>
<path d="M0.844727 30.7805V34.7027V38.4543H8.51785V30.7805H0.844727Z" fill="#DC3427"/>
<path d="M0.844727 46.1281V47.0356V51.1466V53.8933H8.51785V46.1281H0.844727Z" fill="#E03F2B"/>
<path d="M8.51785 53.8933H7.97543H6.64072H5.29989H3.95908H2.62435H1.28963H0.844727V55.2575V59.3624V61.561H1.46638H2.8011H4.14192H5.47664H6.81746H8.15218H8.51785V53.8933Z" fill="#E1402D"/>
<path d="M8.51785 38.4543H7.64633H6.30551H4.97688H3.63606H2.30134H0.960526H0.844727V38.8197V42.9307V46.1281H1.14337H2.47809H3.8189H5.15363H6.48835H7.82307H8.51785V38.4543Z" fill="#E03D2B"/>
<path d="M15.9957 53.8933H14.6549H13.3201H11.9854H10.6446H9.30988H8.51758V56.3173V60.4282V61.561H9.48663H10.8274H12.1622H13.503H14.8377H16.1785H16.2943V61.1956V57.0907V53.8933H15.9957Z" fill="#E2472E"/>
<path d="M16.2943 61.561H16.1785H14.8377H13.503H12.1622H10.8274H9.48663H8.51758V64.5392V68.6502V69.2348H16.2943V65.3127V61.561Z" fill="#DC3427"/>
<path d="M16.2943 46.1281H8.51758V48.0953V52.2124V53.8933H16.2943V52.9797V48.8688V46.1281Z" fill="#E1452D"/>
<path d="M16.2943 30.7805H8.51758V31.6575V35.7685V38.4543H16.2943V36.5359V32.4249V30.7805Z" fill="#DD3827"/>
<path d="M15.1668 15.3415H13.8321H12.4913H11.1566H9.81574H8.51758V19.3368V23.1128H8.62729H9.96201H11.3028H12.6375H13.9784H15.3131H16.2943V20.0981V15.9871V15.3415H15.1668Z" fill="#E03D2B"/>
<path d="M16.2943 23.1128H8.51758V23.4417V27.5526V30.7805H8.80403H10.1449H11.4796H12.8143H14.1551H15.4959H16.2943V28.32V24.209V23.1128Z" fill="#E03F2B"/>
<path d="M15.6666 38.4543H14.3319H12.9971H11.6563H10.3216H8.98078H8.51758V39.8795V43.9904V46.1281H9.16362H10.4983H11.8392H13.1739H14.5147H15.8494H16.2943V44.7578V40.6468V38.4543H15.6666Z" fill="#DD3827"/>
</g>
<mask id="mask2_728_3288" style="mask-type:luminance" maskUnits="userSpaceOnUse" x="29" y="20" width="48" height="50">
<path d="M53.8983 32.0108C59.3834 32.0108 62.7111 34.4591 63.4973 39.0573H44.4943C45.378 34.8488 48.6082 32.0108 53.8983 32.0108ZM29.2151 45.0258C29.2151 59.3137 38.9116 69.8865 54.7759 69.8865C65.3318 69.8865 71.2558 66.5003 75.1746 61.6037C75.2051 61.5671 75.2356 61.5245 75.266 61.4879C75.4245 61.287 75.5769 61.086 75.7292 60.885C75.9182 60.617 76.101 60.3551 76.2777 60.0872C74.7602 57.6449 73.6144 54.9165 72.9135 51.9809H66.0327C63.7777 56.0919 59.4688 57.9495 54.7698 57.9495C50.0709 57.9495 44.1957 53.9359 44.1957 48.2597H72.2858C72.1761 47.2 72.109 46.1281 72.109 45.0319C72.109 39.9647 73.2182 35.3361 75.2112 31.3713C71.1583 24.4222 63.7228 20.0798 53.8922 20.0798C38.613 20.0798 29.209 30.7501 29.209 45.038" fill="white"/>
</mask>
<g mask="url(#mask2_728_3288)">
<path d="M62.4556 46.1281H54.7764V53.8933H62.4556V46.1281Z" fill="#EB6631"/>
<path d="M54.7882 30.7468L54.7266 38.4204L62.3994 38.482L62.4611 30.8084L54.7882 30.7468Z" fill="#E9622F"/>
<path d="M62.4495 38.4543H61.1331H59.7983H58.4636H57.1228H55.7881H54.7764V46.1281H55.9648H57.3056H58.6404H59.9751H61.3159H62.4495V38.4543Z" fill="#E45D26"/>
<path d="M62.4495 23.1128H54.7764V30.7805H55.6052H56.9461H58.2808H59.6216H60.9563H62.291H62.4495V23.1128Z" fill="#E9622E"/>
<path d="M62.4495 53.8933H61.4622H60.1274H58.7866H57.4519H56.1111H54.7764V61.561H54.9531H56.2939H57.6286H58.9695H60.3042H61.0599H61.8217H62.4495V53.8933Z" fill="#EB6931"/>
<path d="M62.4495 15.3415H61.968H60.6272H59.2925H57.9578H56.623H55.2822H54.7764V23.1128H55.4285H56.7693H58.1101H59.4448H60.7735H62.1143H62.4495V15.3415Z" fill="#E9602F"/>
<path d="M62.4495 69.2348H62.3642H61.6023H60.8405H60.0909H59.3229H58.5611H57.8054H56.4707H55.1298H54.7764V77H62.4495V69.2348Z" fill="#EC7034"/>
<path d="M62.4495 61.561H61.8217H61.0599H60.2981H58.9695H57.6286H56.2939H54.9531H54.7764V69.2348H62.4495V61.561Z" fill="#EC6D33"/>
<path d="M77.899 30.7805H70.2197V31.0728V33.3994V35.738V38.0767V38.4543H77.899V37.8331V35.4944V33.1618V30.8231V30.7805Z" fill="#ED7236"/>
<path d="M77.5637 69.2348H76.8019H76.0401H75.2844H74.5225H73.7607H73.005H72.2431H71.4813H70.7256H70.2197V70.7757V73.1083V75.4409V77H77.899V75.2034V72.8768V70.5321V69.2348H77.5637Z" fill="#EE7F3C"/>
<path d="M77.6186 15.3415H76.8568H76.101H75.3392H74.0045H72.6637H71.3229H70.2197V18.7399V22.8448V23.1128H71.4752H72.8099H73.5657H74.3336H75.0893H75.8451H76.613H77.3687H77.899V21.4867V19.148V16.8154V15.3415H77.6186Z" fill="#EC7034"/>
<path d="M77.2346 53.8933H76.4728H75.7171H74.9552H74.1934H73.4316H72.6759H71.914H71.1522H70.3965H70.2197V54.4232V56.7558V59.1005V61.427V61.561H70.9389H71.7007H72.4565H73.2183H73.9801H74.7419H75.4977H76.2595H77.0213H77.7771H77.899V61.1895V58.8508V56.5182V54.1795V53.8933H77.2346Z" fill="#EC7B39"/>
<path d="M77.6978 38.4543H76.936H76.1803H75.4184H74.6566H73.9009H73.1391H72.3772H71.6215H70.8597H70.2197V40.4093V42.7541V45.0806V46.1281H70.6464H71.4021H72.1639H72.9257H73.6815H74.4433H75.2051H75.9609H76.7227H77.4845H77.899V44.8431V42.5044V40.1718V38.4543H77.6978Z" fill="#EC7034"/>
<path d="M77.899 61.561H77.7771H77.0213H76.2595H75.4977H74.7419H73.9801H73.2244H72.4565H71.7007H70.9389H70.2197V63.7657V66.1044V68.437V69.2348H77.899V68.1995V65.8608V63.5282V61.561Z" fill="#ED7839"/>
<path d="M77.899 46.1281H70.2197V47.4132V49.7519V52.0906V53.8933H77.899V51.8469V49.5144V47.1818V46.1281Z" fill="#ED7839"/>
<path d="M77.899 23.1128H70.2197V26.9558V30.7805H70.3111H70.3172H71.073H71.8348H72.5966H73.3585H74.1142H74.876H75.6379H76.3936H77.1554H77.899V28.4905V26.158V23.8254V23.1128Z" fill="#EC7034"/>
<path d="M70.2199 69.2348H69.9639H69.2021H68.4402H67.6845H66.9227H66.1608H65.4051H64.6433H63.8815H63.1257H62.4492V71.3055V73.6442V75.9768V77H70.2199V69.2348Z" fill="#ED7839"/>
<path d="M62.4492 46.1281V46.7433V50.8481V53.8933H70.2199V46.1281H62.4492Z" fill="#EC7034"/>
<path d="M70.2199 53.8933H69.6348H68.879H68.1111H67.3554H66.5936H65.8317H65.076H64.3203H63.5584H62.7966H62.4492V54.9591V57.2917V59.6304V61.561H62.5772H63.3451H64.1009H64.8566H65.6184H66.3803H67.1421H67.9039H68.6596H69.4215H70.1772H70.2199V53.8933Z" fill="#ED7236"/>
<path d="M70.2199 61.561H70.1772H69.4215H68.6596H67.8978H67.1421H66.3803H65.6184H64.8566H64.1009H63.3451H62.5772H62.4492V61.963V64.2956V66.6343V68.9729V69.2348H70.2199V61.561Z" fill="#EC7537"/>
<path d="M70.2199 38.4543H70.1041H69.3422H68.5804H67.8247H66.4839H65.143H63.8083H62.4675H62.4492V38.5213V42.6323V46.1281H62.6503H63.9851H65.3259H66.0816H66.8434H67.6053H68.361H69.1228H69.8847H70.2199V38.4543Z" fill="#EC6D33"/>
<path d="M62.4492 30.7805V34.4103V38.4543H70.2199V30.7805H62.4492Z" fill="#EC6932"/>
<path d="M70.2201 15.3415V15.3354H69.9824L68.6477 15.3415H67.313H65.9783H64.6435H63.3027H62.4434L62.4495 17.9726V22.0835V23.1189H63.4551L64.7898 23.1128H66.1306H67.4653H68.8061H70.1348H70.2262V23.1067L70.2201 15.3415Z" fill="#EC7034"/>
<path d="M70.2199 23.1128H62.4492V26.1945V30.2994V30.7805H63.6316H64.9663H66.3071H67.6418H68.9827H70.2199V23.1128Z" fill="#EB6631"/>
<path d="M47.0972 30.7805H39.418V31.2129V35.33V38.4543H47.0972V36.3897V32.2787V30.7805Z" fill="#E6592D"/>
<path d="M47.0972 46.1281H39.418V47.6629V51.7678V53.8933H47.0972V52.8336V48.7226V46.1281Z" fill="#E65D2E"/>
<path d="M46.4268 38.4543H45.0921H43.7512H42.4104H41.0757H39.741H39.418V39.4349V43.5458V46.1281H39.9177H41.2524H42.5933H43.9341H45.2688H46.6035H47.0972V44.6116V40.5007V38.4543H46.4268Z" fill="#E65B2E"/>
<path d="M47.0972 23.1128H39.418V27.108V30.7805H39.5642H40.899H42.2398H43.5745H44.9092H46.25H47.0972V28.1678V24.0629V23.1128Z" fill="#E6562E"/>
<path d="M45.7747 69.2348H44.4338H43.0991H41.7583H40.4236H39.418V72.3165V76.4275V77H47.0972V73.3823V69.2714V69.2348H45.7747Z" fill="#E9612E"/>
<path d="M46.7498 53.8933H45.4151H44.0743H42.7395H41.3987H40.064H39.418V55.8787V59.9836V61.561H40.2407H41.5816H42.9163H44.2571H45.5918H46.9326H47.0972V61.0494V56.9385V53.8933H46.7498Z" fill="#E85F2F"/>
<path d="M47.0972 61.561H46.9326H45.5918H44.2571H42.9163H41.5816H40.2407H39.418V64.0946V68.2056V69.2348H47.0972V65.1604V61.561Z" fill="#E8602F"/>
<path d="M39.4171 38.4543H38.4054H37.0646H35.7299H34.3952H33.0543H31.7135H31.6465V38.6675V42.7845V46.1281H31.8964H33.2311H34.5719H35.9066H37.2474H38.5822H39.4171V38.4543Z" fill="#E5542F"/>
<path d="M39.4171 23.1128H31.6465V26.3407V30.4455V30.7805H32.8776H34.2123H35.5531H36.8879H38.2287H39.4171V23.1128Z" fill="#E5502F"/>
<path d="M31.6465 30.7805V34.5626V38.4543H39.4171V30.7805H31.6465Z" fill="#E6522E"/>
<path d="M39.4171 15.3415H39.2343H37.8935H36.5587H35.224H33.8893H32.5485H31.6465V18.1187V22.2236V23.1128H32.6948H34.0356H35.3703H36.7111H38.0458H39.3806H39.4171V15.3415Z" fill="#DE3B2A"/>
<path d="M45.927 15.3415H44.5862H43.2454H41.9107H40.5759H39.418V18.8861V22.9971V23.1128H40.7161H42.0569H43.3978H44.7325H46.0733H47.0972V19.9519V15.8409V15.3415H45.927Z" fill="#DD5326"/>
<path d="M31.6465 46.1281V46.8894V51.0004V53.8933H39.4171V46.1281H31.6465Z" fill="#DD5326"/>
<path d="M39.4171 61.561H38.9052H37.5705H36.2296H34.8949H33.5602H32.2194H31.6465V63.3272V67.4443V69.2348H39.4171V61.561Z" fill="#E65B2E"/>
<path d="M39.4171 69.2348H39.088H37.7472H36.4125H35.0717H33.7369H32.3961H31.6465V71.5492V75.6601V77H39.4171V69.2348Z" fill="#E65D2E"/>
<path d="M39.4171 53.8933H38.7284H37.3937H36.0529H34.7182H33.3774H32.0426H31.6465V55.1053V59.2223V61.561H32.2194H33.5602H34.8949H36.2296H37.5705H38.9052H39.4171V53.8933Z" fill="#E6592D"/>
<path d="M54.4468 38.4543H53.1121H51.7713H50.4365H49.1018H47.7671H47.0967V46.1281H47.9377H49.2786H50.6133H51.948H53.2888H54.6296H54.7759V45.6714V41.5665V38.4543H54.4468Z" fill="#E9602F"/>
<path d="M54.7759 23.1128H47.0967V30.7805H47.5843H48.9251H50.2537H51.5945H52.9353H54.27H54.7759V29.2336V25.1287V23.1128Z" fill="#E65D2E"/>
<path d="M53.9353 15.3294L52.5945 15.3354L51.2537 15.3415H49.919L48.5842 15.3476L47.2434 15.3537H47.0911H47.085L47.1093 23.125H47.1154H47.4202L48.761 23.1189H50.0957L51.4304 23.1128L52.7652 23.1067L54.106 23.1006H54.7886L54.7764 21.0055L54.7703 16.8946L54.7642 15.3294H53.9353Z" fill="#E65B2E"/>
<path d="M54.7759 46.1281H47.0967V53.8933H54.7759V49.7823V46.1281Z" fill="#E9612E"/>
<path d="M54.7759 61.561H53.6118H52.2771H50.9424H49.6016H48.2668H47.0967V69.2348H54.7759V66.2262V62.1152V61.561Z" fill="#E45D26"/>
<path d="M53.7947 69.2348H52.4539H51.1191H49.7844H48.4497H47.1089H47.0967V77H54.7759V74.4482V70.3372V69.2348H53.7947Z" fill="#EB6631"/>
<path d="M53.4351 53.8933H52.1004H50.7656H49.4248H48.0901H47.0967V61.561H48.2668H49.6077H50.9424H52.2771H53.6118H54.7759V58.0104V53.8994V53.8933H53.4351Z" fill="#E9622F"/>
<path d="M54.7759 30.7805H47.0967V38.4543H54.7759V37.4555V33.3506V30.7805Z" fill="#E6592D"/>
<path d="M31.647 23.1128H23.9678V30.7805H24.8515H26.1923H27.5331H28.8618H30.2026H31.5373H31.647V23.1128Z" fill="#E34B2E"/>
<path d="M31.647 69.2348H31.0619H29.7211H28.3864H27.0517H25.7169H24.3761H23.9678V77H31.647V69.2348Z" fill="#E6562E"/>
<path d="M31.6409 30.7805H23.9678V38.4543H31.6409V30.7805Z" fill="#DD5326"/>
<path d="M31.647 61.561H30.8852H29.5443H28.2096H26.8749H25.5341H24.1994H23.9678V69.2348H31.647V61.561Z" fill="#E5542F"/>
<path d="M31.647 53.8933H30.7023H29.3676H28.0329H26.6982H25.3573H24.0226H23.9678V61.561H24.1994H25.5341H26.8749H28.2096H29.5443H30.8852H31.647V53.8933Z" fill="#E2472E"/>
<path d="M31.6409 46.1281H23.9678V53.8933H31.6409V46.1281Z" fill="#E5502F"/>
<path d="M31.647 38.4543H30.3793H29.0446H27.7038H26.3691H25.0343H23.9678V46.1281H25.2111H26.5458H27.8805H29.2213H30.5561H31.647V38.4543Z" fill="#E44E2E"/>
<path d="M31.647 15.3415H31.2143H29.8796H28.5326H27.1979H25.8632H24.5285H23.9678V23.1128H24.6748H26.0095H27.3503H28.6911H30.0197H31.3606H31.647V15.3415Z" fill="#DD5326"/>
</g>
<mask id="mask3_728_3288" style="mask-type:luminance" maskUnits="userSpaceOnUse" x="111" y="57" width="14" height="13">
<path d="M111.815 69.8865H124.047V57.5779C121.457 63.0044 117.185 67.292 111.815 69.8865Z" fill="white"/>
</mask>
<g mask="url(#mask3_728_3288)">
<path d="M124.163 69.2348H123.773H122.78H121.786H120.793H119.805H118.806H117.813H116.819H116.496V70.2397V73.2971V76.3483V77H124.169V69.2348H124.163Z" fill="#83BC43"/>
<path d="M124.163 61.561H123.286H122.292H121.305H120.311H119.312H118.324H117.325H116.496V64.1372V67.1885V69.2348H124.169V61.561H124.163Z" fill="#84BC42"/>
<path d="M124.163 53.8933H123.797H122.81H121.811H120.817H119.824H118.83H117.843H116.843H116.496V54.9774V58.0286V61.0799V61.561H117.331H118.324H119.312H120.311H121.305H122.298H123.286H124.163H124.169V53.8933H124.163Z" fill="#83BC44"/>
<path d="M115.85 53.8933H114.856H113.863H112.869H111.882H110.882H109.889H108.896H108.816V61.561H109.383H110.377H111.37H112.357H113.351H114.344H115.344H116.337H116.496V61.0799V58.0286V54.9774V53.8933H115.85Z" fill="#88BD40"/>
<path d="M116.337 61.561H115.344H114.344H113.351H112.357H111.37H110.377H109.383H108.816V69.2348H116.496V67.1885V64.1372V61.561H116.337Z" fill="#88BD40"/>
<path d="M115.825 69.2348H114.826H113.838H112.845H111.845H110.858H109.865H108.871H108.816V77H116.496V76.3483V73.2971V70.2397V69.2348H115.825Z" fill="#83BC44"/>
</g>
<path d="M112.462 48.9601H103.417V57.9982H95.5063V48.9601H86.4619V41.0488H95.5063V32.0108H103.417V41.0488H112.462V48.9601Z" fill="white"/>
</svg>
