<?xml version="1.0" encoding="UTF-8"?>
<svg id="Capa_1" xmlns="http://www.w3.org/2000/svg" version="1.1" viewBox="0 0 1171.45 1090.74">
  <!-- Generator: Adobe Illustrator 29.8.3, SVG Export Plug-In . SVG Version: 2.1.1 Build 3)  -->
  <defs>
    <style>
      .st0 {
        fill: #015dff;
        fill-rule: evenodd;
      }
    </style>
  </defs>
  <g id="Capa_x5F_1">
    <path class="st0" d="M1026.38,276.27v-55.24l-72.23-40v-57.77l-37.05-18.04C811.81,53.9,695.39,19.63,561.11,1.4l-8.77-1.22-8.77,1.22c-134.28,18.23-250.7,52.51-355.97,103.82l-37.05,18.04v57.77l-72.24,39.99v55.24L-.17,319.3l6.2,45.85c20.79,153.86,75.67,293.1,163.03,413.94,88.29,122.11,207.47,222.01,354.23,296.99l29.05,14.86,29.05-14.86c144.86-74.01,262.85-172.3,350.79-292.26,23.37,13.39,50.45,21.05,79.32,21.05,88.25,0,159.79-71.54,159.79-159.79,0-67.02-41.27-124.4-99.78-148.12,11.96-42.61,21.03-86.58,27.14-131.81l6.2-45.85-78.47-43.03ZM882.87,739.89c-19.38-26.25-30.91-58.64-31.15-93.72-63.56,98.04-170.26,204.51-265.34,254.55V187.29c36.06,1.6,71.1,7.21,104.71,16.44,58.41,16.64,98.46,37.25,124.63,54.28,43.32,28.17,73.1,60.97,73.1,97.82,0,26.04-5.56,47.56-31.7,77.14,34.5,16.97,51.49,38.48,51.22,71.4-.05,6.45-.74,13.28-2,20.43,27.02-23.63,62.06-38.31,100.51-39.41,17.24-59.45,23.86-106.2,27.16-129.33l-72.9-39.96v-55.43l-72.23-39.99v-55.39c-99.92-48.7-210-80.74-336.64-97.94-126.63,17.2-236.72,49.22-336.64,97.94v55.39l-72.23,39.99v55.43l-72.88,39.96c7.34,51.29,30.94,218.96,150.91,383.52,122.01,169.45,282.45,251.65,330.86,276.95,48.37-25.28,208.64-107.4,330.62-276.63h0ZM658.52,272.6c36.12,0,152.97,37.77,152.97,85.47,0,17.19-14.85,41.84-61.07,66.64l-91.9,50.38v-202.49h0ZM749.57,668.23c-20.64,24.33-54.45,61.43-91.05,90.34v-204.69s132.59-76.28,137.45-79.53c39.69,10.28,37.67,40.12,37.67,43.21-.04,37.59-37.62,95.78-84.08,150.68ZM444.3,200.64l3.36,450.67-3.11,1.86c-46.67-120.58-74.49-271.05-83.27-421.96-22.91,10.53-47.23,23.57-72.15,39.7,10.07,136.91,32.96,256.7,74.09,370.41l-23.28,13.78c-61.68-88.3-101.98-195.69-129.65-323.07-19.06,17.5-37.97,37.1-56.43,59.07,36.16,152.89,93.08,268.75,176.27,363.06l64.14-39.19c31.42,66.92,75.56,132.96,124.05,185.74V187.29c-24.69,2.46-49.11,6.81-74.01,13.35h0ZM876.66,603.92v.53h47.78v116.58h38.14v-116.58h43.59l42.86,116.58h40.92l53.24-144.82h-38.14l-35.57,103.51-35.57-103.51h-143.89c-3.91,9.01-8.38,18.27-13.37,27.71h0Z"/>
  </g>
</svg>